<?xml version="1.0" encoding="UTF-8" standalone="no"?>
<!DOCTYPE svg PUBLIC "-//W3C//DTD SVG 1.1//EN" "http://www.w3.org/Graphics/SVG/1.1/DTD/svg11.dtd">
<svg width="100%" height="100%" viewBox="0 0 1448 563" version="1.1" xmlns="http://www.w3.org/2000/svg" xmlns:xlink="http://www.w3.org/1999/xlink" xml:space="preserve" xmlns:serif="http://www.serif.com/" style="fill-rule:evenodd;clip-rule:evenodd;stroke-linejoin:round;stroke-miterlimit:2;">
    <g transform="matrix(1,0,0,1,-1798.627917,-598.5725)">
        <g transform="matrix(4.166667,0,0,4.166667,0,0)">
            <g transform="matrix(1,0,0,1,550.878,248.1821)">
                <path d="M0,-50.755C-43.426,-50.755 -82.723,-34.598 -112.521,-7.532C-110.808,-4.33 -109.77,-2.436 -108.236,0C-76.875,-30.064 -34.69,-48.165 12.184,-48.165C21.631,-48.165 28.009,-48.444 37.048,-47C24.247,-50.125 13.764,-50.755 0,-50.755" style="fill:rgb(0,161,233);fill-rule:nonzero;"/>
            </g>
        </g>
        <g transform="matrix(4.166667,0,0,4.166667,0,0)">
            <g transform="matrix(1,0,0,1,475.897,216.9611)">
                <path d="M4.57,-40.906L-7.701,-40.906C-7.701,-40.906 -6.676,-40.317 -5.764,-39.394L-5.764,-13.974L-5.796,-5.593L-9.666,0C-3.982,-3.338 2.604,-6.48 2.604,-6.48L2.632,-39.437C3.419,-40.277 4.57,-40.906 4.57,-40.906Z" style="fill:rgb(7,39,94);fill-rule:nonzero;"/>
            </g>
        </g>
        <g transform="matrix(4.166667,0,0,4.166667,0,0)">
            <g transform="matrix(1,0,0,1,440.5757,177.1696)">
                <path d="M0,33.99C0,13.126 10.778,-5.01 27.102,-15.509C28.447,-14.181 29.562,-12.183 29.562,-12.183L29.562,-17.017L29.566,-17.02L29.566,-26.956C6.772,-16.026 -8.905,6.982 -8.905,33.99C-8.905,43.575 -6.895,52.687 -3.293,60.946C-0.772,59.089 1.557,56.981 3.826,54.824C1.361,48.349 0,41.33 0,33.99" style="fill:rgb(7,39,94);fill-rule:nonzero;"/>
            </g>
        </g>
        <g transform="matrix(4.166667,0,0,4.166667,0,0)">
            <g transform="matrix(1,0,0,1,470.0206,238.1766)">
                <path d="M0,23.898C-10.149,18.147 -16.647,9.855 -19.312,5.995L-26.026,11.98C-11.561,32.422 8.525,37.25 8.525,37.25L8.525,-13.352L0,-8.345L0,23.898Z" style="fill:rgb(7,39,94);fill-rule:nonzero;"/>
            </g>
        </g>
        <g transform="matrix(4.166667,0,0,4.166667,0,0)">
            <g transform="matrix(1,0,0,1,566.1856,278.6405)">
                <path d="M0,-75.354C-0.722,-75.383 -3.395,-75.35 -3.699,-75.354L-8.901,-75.204C-8.525,-72.534 -8.4,-70.254 -8.4,-67.481C-8.4,-51.463 -14.833,-36.953 -25.248,-26.374C-23.909,-30.389 -23.204,-34.641 -23.204,-39.019C-23.204,-53.197 -30.639,-64.969 -42.315,-70.783L-48.972,-69.121L-47.462,-68.288C-36.644,-61.846 -30.716,-50.513 -30.716,-39.019C-30.716,-30.156 -34.428,-21.212 -40.812,-15.058C-48.696,-11.111 -57.587,-8.876 -67.005,-8.876C-70.391,-8.876 -73.395,-9.103 -76.362,-9.62C-78.019,-11.259 -79.268,-13.827 -79.268,-13.827L-79.268,-8.881L-79.266,-8.881L-79.266,-1.108C-75.286,-0.362 -71.311,0.029 -67.005,0.029C-29.72,0.029 0.505,-30.197 0.505,-67.481C0.505,-70.264 0.328,-72.66 0,-75.354" style="fill:rgb(7,39,94);fill-rule:nonzero;"/>
            </g>
        </g>
        <g transform="matrix(4.166667,0,0,4.166667,0,0)">
            <g transform="matrix(1,0,0,1,518.6055,162.7074)">
                <path d="M0,16.794C0,24.499 -3.331,31.367 -6.558,35.844L3.695,33.814C5.153,31.264 8.432,27.789 8.432,17.979C8.432,4.891 1.733,-4.501 -9.277,-9.27C13.304,-5.317 30.604,11.173 36.792,31.927L46.082,32.259C38.567,2.793 12.581,-19.05 -19.448,-19.05C-26.657,-19.05 -33.615,-17.858 -40.129,-15.766L-40.129,-6.359C-40.127,-6.36 -40.125,-6.36 -40.123,-6.361L-40.123,-2.164C-40.123,-2.164 -38.613,-5.645 -36.827,-7.478C-31.912,-9.003 -26.703,-9.932 -21.339,-10.108C-8.56,-6.891 0,3.572 0,16.794" style="fill:rgb(7,39,94);fill-rule:nonzero;"/>
            </g>
        </g>
        <g transform="matrix(4.166667,0,0,4.166667,0,0)">
            <g transform="matrix(0,1,1,0,623.9809,210.2789)">
                <path d="M-4.405,-11.284L19.647,-11.284L19.647,-4.405L-12.768,-4.405C-8.104,-7.391 -4.405,-11.284 -4.405,-11.284" style="fill:rgb(35,25,22);fill-rule:nonzero;"/>
            </g>
        </g>
        <g transform="matrix(4.166667,0,0,4.166667,0,0)">
            <g transform="matrix(1,0,0,1,643.3389,201.2361)">
                <path d="M-5.628,-9.348L33.145,-9.348L33.145,-15.795L14.696,-15.795L14.696,-26.055L7.504,-26.055L7.504,-15.795L-5.628,-15.795L-5.628,-37.715L-12.507,-37.715L-12.507,-12.572C-12.091,3.117 -15.218,15.259 -21.888,23.854C-21.262,24.282 -20.324,24.927 -19.074,25.788C-17.618,27.078 -16.572,27.934 -15.947,28.367C-8.863,18.483 -5.424,5.912 -5.628,-9.348Z" style="fill:rgb(35,25,22);fill-rule:nonzero;"/>
            </g>
        </g>
        <g transform="matrix(4.166667,0,0,4.166667,0,0)">
            <g transform="matrix(1,0,0,1,669.6041,152.7191)">
                <path d="M0,26.919L6.879,26.898L6.879,10.802L-11.567,10.802L-11.567,0L-18.762,0L-18.762,10.802L-26.745,10.802L-26.745,17.249L0,17.249L0,26.919Z" style="fill:rgb(35,25,22);fill-rule:nonzero;"/>
            </g>
        </g>
        <g transform="matrix(4.166667,0,0,4.166667,0,0)">
            <g transform="matrix(1,0,0,1,716.9464,161.5872)">
                <rect x="-7.191" y="-6.125" width="7.191" height="15.795" style="fill:rgb(35,25,22);fill-rule:nonzero;"/>
            </g>
        </g>
        <g transform="matrix(4.166667,0,0,4.166667,0,0)">
            <g transform="matrix(1,0,0,1,771.9874,168.3563)">
                <path d="M0,-12.894L-7.191,-12.894L-7.191,-3.224L-26.891,-3.224L-26.891,-15.795L-34.082,-15.795L-34.082,-3.224L-49.896,-3.224L-49.896,2.901L0,2.901L0,-12.894Z" style="fill:rgb(35,25,22);fill-rule:nonzero;"/>
            </g>
        </g>
        <g transform="matrix(4.166667,0,0,4.166667,0,0)">
            <g transform="matrix(1,0,0,1,722.8965,192.2093)">
                <rect x="0" y="0" width="48.466" height="6.126" style="fill:rgb(35,25,22);fill-rule:nonzero;"/>
            </g>
        </g>
        <g transform="matrix(4.166667,0,0,4.166667,0,0)">
            <g transform="matrix(1,0,0,1,750.7256,229.925)">
                <path d="M0,-26.367L-7.505,-26.367L-7.505,-21.597L-33.457,-21.597L-33.457,-15.472L-7.505,-15.472L-7.505,0L0,0L0,-15.472L26.265,-15.472L26.265,-21.597L0,-21.597L0,-26.367Z" style="fill:rgb(35,25,22);fill-rule:nonzero;"/>
            </g>
        </g>
        <g transform="matrix(4.166667,0,0,4.166667,0,0)">
            <g transform="matrix(1,0,0,1,716.9561,229.925)">
                <path d="M0,-51.576L-7.191,-51.576L-7.191,-33.847C-6.566,-20.52 -9.277,-10.85 -15.321,-4.835C-12.82,-3.117 -10.841,-1.505 -9.381,0C-2.502,-7.524 0.625,-18.803 0,-33.847L0,-51.576Z" style="fill:rgb(35,25,22);fill-rule:nonzero;"/>
            </g>
        </g>
        <g transform="matrix(4.166667,0,0,4.166667,0,0)">
            <g transform="matrix(1,0,0,1,722.1788,174.6294)">
                <path d="M0,8.204L0,15.093C24.458,1.651 56.965,14.461 56.965,14.461C26.601,-6.889 0,8.204 0,8.204" style="fill:rgb(35,25,22);fill-rule:nonzero;"/>
            </g>
        </g>
        <g transform="matrix(4.166667,0,0,4.166667,0,0)">
            <g transform="matrix(1,0,0,1,662.504,211.0998)">
                <path d="M0,4.59C5.028,-0.224 8.715,-6.187 11.057,-14.006L3.418,-14.006C1.599,-7.73 -1.54,-2.943 -5.655,0.808C-9.993,-2.796 -13.269,-7.534 -15.114,-14.006L-22.609,-14.006C-20.492,-5.985 -16.65,0.237 -11.457,5.085C-16.606,8.15 -22.695,10.259 -29.393,11.866L-25.223,18.596C-17.721,15.917 -11.32,12.997 -5.975,9.372C-0.43,13.036 6.147,15.664 13.518,17.531L17.121,10.727L16.445,10.496C10.344,9.007 4.776,7.186 0,4.59" style="fill:rgb(35,25,22);fill-rule:nonzero;"/>
            </g>
        </g>
        <g transform="matrix(4.166667,0,0,4.166667,0,0)">
            <g transform="matrix(-0.883827,-0.467814,-0.467814,0.883827,599.307257,169.183529)">
                <path d="M-18.848,-24.347L-11.358,-24.347C-11.356,-15.107 -9.088,-5.884 -4.799,2.323L-11.437,5.792C-16.284,-3.48 -18.846,-13.903 -18.848,-24.347" style="fill:rgb(35,25,22);fill-rule:nonzero;"/>
            </g>
        </g>
        <g transform="matrix(4.166667,0,0,4.166667,0,0)">
            <g transform="matrix(-0.912871,-0.408248,-0.408248,0.912871,602.445929,202.149963)">
                <path d="M-4.892,-31.951C-5.136,-21.442 -2.81,-10.874 1.835,-1.389L-4.892,1.906C-10.062,-8.654 -12.652,-20.422 -12.381,-32.124L-4.892,-31.951Z" style="fill:rgb(35,25,22);fill-rule:nonzero;"/>
            </g>
        </g>
        <g transform="matrix(4.166667,0,0,4.166667,0,0)">
            <g transform="matrix(1,0,0,1,617.4327,252.3279)">
                <path d="M0,13.57C1.251,13.57 2.02,13.397 2.646,12.971C3.328,12.516 3.812,11.606 3.812,10.725C3.812,9.87 3.356,8.96 2.646,8.477C1.991,8.022 1.167,7.851 -0.313,7.851L-1.763,7.851L-1.763,13.57L0,13.57ZM-0.882,5.463C0.256,5.463 0.939,5.264 1.422,4.78C1.906,4.295 2.219,3.444 2.219,2.647C2.219,1.879 1.906,1.082 1.422,0.627C0.967,0.172 0.256,-0.056 -0.768,-0.056L-1.763,-0.056L-1.763,5.463L-0.882,5.463ZM-4.636,-2.701L-1.792,-2.701C0.484,-2.701 1.764,-2.417 2.759,-1.735C4.039,-0.853 4.921,0.911 4.921,2.618C4.921,4.012 4.437,5.091 3.385,6.06C5.376,6.743 6.627,8.591 6.627,10.839C6.627,12.432 5.945,13.882 4.722,14.906C3.47,15.929 2.276,16.271 -0.284,16.271L-4.636,16.271L-4.636,-2.701Z" style="fill:rgb(35,25,22);fill-rule:nonzero;"/>
            </g>
        </g>
        <g transform="matrix(4.166667,0,0,4.166667,0,0)">
            <g transform="matrix(1,0,0,1,641.9258,265.8985)">
                <path d="M0,-13.57L0,-9.018L7.367,-9.018L7.367,-6.317L0,-6.317L0,-0.001L7.595,-0.001L7.595,2.701L-2.873,2.701L-2.873,-16.271L7.595,-16.271L7.595,-13.57L0,-13.57Z" style="fill:rgb(35,25,22);fill-rule:nonzero;"/>
            </g>
        </g>
        <g transform="matrix(4.166667,0,0,4.166667,0,0)">
            <g transform="matrix(1,0,0,1,662.835,268.5993)">
                <path d="M0,-18.972L3.299,-18.972L7.623,-11.378L12.004,-18.972L15.274,-18.972L9.074,-8.193L9.074,0L6.201,0L6.201,-8.193L0,-18.972Z" style="fill:rgb(35,25,22);fill-rule:nonzero;"/>
            </g>
        </g>
        <g transform="matrix(4.166667,0,0,4.166667,0,0)">
            <g transform="matrix(1,0,0,1,692.6758,259.1557)">
                <path d="M0,-0.085C0,2.048 0.683,3.725 2.104,5.09C3.441,6.371 5.233,7.11 6.969,7.11C10.979,7.11 14.08,3.981 14.08,-0.029C14.08,-4.067 11.036,-7.197 7.054,-7.197C3.129,-7.197 0,-4.067 0,-0.085M16.952,-0.029C16.952,5.432 12.486,9.813 6.94,9.813C4.21,9.813 1.394,8.533 -0.483,6.455C-2.076,4.694 -2.873,2.474 -2.873,-0.114C-2.873,-5.462 1.649,-9.898 7.082,-9.898C12.516,-9.898 16.952,-5.462 16.952,-0.029" style="fill:rgb(35,25,22);fill-rule:nonzero;"/>
            </g>
        </g>
        <g transform="matrix(4.166667,0,0,4.166667,0,0)">
            <g transform="matrix(1,0,0,1,724.5928,269.7661)">
                <path d="M0,-21.42L13.823,-6.97L13.823,-20.139L16.696,-20.139L16.696,0L2.873,-14.45L2.873,-1.167L0,-1.167L0,-21.42Z" style="fill:rgb(35,25,22);fill-rule:nonzero;"/>
            </g>
        </g>
        <g transform="matrix(4.166667,0,0,4.166667,0,0)">
            <g transform="matrix(1,0,0,1,761.3741,252.3279)">
                <path d="M0,13.57C2.305,13.57 3.727,13.17 5.063,12.205C6.713,10.98 7.652,9.018 7.652,6.799C7.652,4.552 6.685,2.533 5.063,1.337C3.812,0.399 2.305,0.001 0,0.001L-1.279,0.001L-1.279,13.57L0,13.57ZM-4.152,-2.701L-0.17,-2.701C3.101,-2.701 5.007,-2.19 6.855,-0.853C9.217,0.882 10.524,3.585 10.524,6.77C10.524,10.013 9.217,12.66 6.713,14.451C4.808,15.845 3.158,16.271 -0.228,16.271L-4.152,16.271L-4.152,-2.701Z" style="fill:rgb(35,25,22);fill-rule:nonzero;"/>
            </g>
        </g>
    </g>
</svg>
